<svg xmlns="http://www.w3.org/2000/svg" viewBox="0 0 250 203.138"><path d="M78.62 203.138c94.34 0 145.94-78.16 145.94-145.94 0-2.22 0-4.43-.15-6.63A104.36 104.36 0 0 0 250 24.018a102.38 102.38 0 0 1-29.46 8.07 51.47 51.47 0 0 0 22.55-28.37 102.79 102.79 0 0 1-32.57 12.45c-19.425-20.655-51.916-21.652-72.572-2.227a51.34 51.34 0 0 0-14.838 49.007A145.62 145.62 0 0 1 17.4 9.358c-13.614 23.437-6.66 53.419 15.88 68.47A50.91 50.91 0 0 1 10 71.408v.65c.007 24.416 17.218 45.445 41.15 50.28a51.21 51.21 0 0 1-23.16.88c6.72 20.894 25.976 35.208 47.92 35.62a102.92 102.92 0 0 1-63.7 22 104.412 104.412 0 0 1-12.21-.74 145.21 145.21 0 0 0 78.62 23"/></svg>