<svg xmlns="http://www.w3.org/2000/svg" viewBox="0 0 667.365 649.71"><path d="M280.717 559.669C125.352 559.669 0 434.317 0 278.952S127.117 0 280.717 0s280.717 125.352 280.717 280.717S436.083 559.67 280.717 559.67zm0-524.359C144.772 35.31 35.31 144.772 35.31 280.717s109.462 245.407 245.407 245.407 245.407-109.462 245.407-245.407S416.662 35.31 280.717 35.31z"/><path d="M649.71 649.71c-5.296 0-8.827-1.765-12.358-5.296L462.566 469.628c-7.063-7.063-7.063-17.656 0-24.718s17.655-7.062 24.717 0l174.786 174.787c7.062 7.062 7.062 17.655 0 24.717-3.531 3.53-7.062 5.296-12.359 5.296z"/></svg>