<?xml version="1.0" encoding="utf-8"?>
<!-- Generator: Adobe Illustrator 21.1.0, SVG Export Plug-In . SVG Version: 6.00 Build 0)  -->
<svg version="1.1" id="Слой_1" xmlns="http://www.w3.org/2000/svg" xmlns:xlink="http://www.w3.org/1999/xlink" x="0px" y="0px"
	 viewBox="0 0 22 14" style="enable-background:new 0 0 22 14;" xml:space="preserve">
<path d="M22,6h-2V4h-2v2h-2v2h2v2h2V8h2 M7,6v2.3999996h4c-0.1999998,1-1.1999998,3-4,3C4.5999999,11.3999996,2.7,9.3999996,2.7,7
	S4.5999999,2.5999999,7,2.5999999c1.3999996,0,2.3000002,0.5999999,2.8000002,1.0999999l1.8999996-1.7999997
	C10.5,0.6999998,8.8999996,0,7,0C3.0999999,0,0,3.1000004,0,7s3.0999999,7,7,7c4,0,6.6999998-2.7999992,6.6999998-6.8000002
	c0-0.5,0-0.8000002-0.0999994-1.1999998H7z"/>
</svg>
