<?xml version="1.0" encoding="utf-8"?>
<!-- Generator: Adobe Illustrator 21.1.0, SVG Export Plug-In . SVG Version: 6.00 Build 0)  -->
<svg version="1.1" id="Слой_1" xmlns="http://www.w3.org/2000/svg" xmlns:xlink="http://www.w3.org/1999/xlink" x="0px" y="0px"
	 viewBox="0 0 242.7488861 85.8408432" enable-background="new 0 0 242.7488861 85.8408432" xml:space="preserve">
<path d="M1.3102232,85.8408432c-0.4819521,0-0.9871639-0.0956116-1.2068208-0.4858246
	c-0.2170718-0.3837509-0.0516852-0.8618317,0.1240424-1.1964874l0.027134-0.0503922L0.30497,84.0810013
	c1.7960174-1.0130081,3.4847927-2.2237091,5.0223913-3.5985031c0.0310106-0.0284348,2.2366228-2.0389404,4.2419639-4.7420044
	c0.2933054-0.3966751,0.6550941-0.9031754,1.1099129-1.6642303c0.4599876-0.7675095,0.7429581-1.351532,0.7468319-1.3579941
	c0.6331282-1.3166504-0.0297194-3.3633347-0.8695831-5.9539948c-0.2299929-0.7080688-0.4716158-1.4561996-0.7054863-2.2417984
	c-0.2648802-0.8928413-0.3333607-1.2132835-0.4173479-1.6189957C9.340621,62.4641685,9.225626,61.9176064,8.8160286,60.42136
	c-0.8127298-2.9782906-1.7740512-5.9953423-2.856832-8.9645844L3.4538167,41.2866631
	c-0.6680157-1.0491867-1.0659831-2.2004471-1.1538444-3.333622c-0.043932-0.582737,0.0245488-1.1564293,0.1615124-2.2973518
	c0.1796019-1.4807434,0.2687571-2.2224121,0.7003176-2.4278564c0.5116713-0.2454948,1.1112065,0.1938171,1.6900668,0.6189156
	c0.4238076,0.3126907,0.9070535,0.6693115,1.1357551,0.5336342c0.197691-0.1175804,0.2881374-0.5840263,0.175725-0.9225578
	c-0.0762339-0.2312889-0.197691-0.3876305-0.3708334-0.4780769c-2.0893254-1.0892372-2.0686507-2.8516636-2.0479786-4.5559425
	c0.0077531-0.6473427,0.0167978-1.3166504-0.1007826-1.9239349c-0.1111212-0.5749836,0.0607297-0.8657036,0.2235336-1.0078354
	c0.1796017-0.1550503,0.5245924-0.292017,1.1654744-0.0736485c0.3617883,0.1253338,0.7274513,0.2493763,0.9535704,0.1279163
	c0.131793-0.0710659,0.2287016-0.2261162,0.2958908-0.4767838c0.0969086-0.3604946,0.2054443-0.7209911,0.3139801-1.0801945
	c0.2700486-0.8889637,0.5478501-1.8102322,0.6370053-2.7224503c0.0271339-0.2622948,0.0245485-0.5439758,0.021966-0.8153152
	c-0.0051684-0.6615562-0.0103364-1.3463688,0.4083033-1.7727623c0.2196569-0.2235336,0.4767842-0.2222424,0.7442498-0.2157822
	c0.2467909,0.0038757,0.5297604,0.0103378,0.890255-0.153759c0.4199333-0.1899376,0.6899815-0.4586945,0.835988-0.6034088
	c0.1834784-0.1808929,0.5349283-0.5969486,0.8450317-1.3618736c0.2351608-0.5801516,0.3230247-1.0646887,0.3824606-1.3851309
	c0.0671892-0.3592033,0.1111212-0.5969496,0.3436995-0.6202078c0.0103359,0,0.0206747-0.0012913,0.0284252-0.0012913
	c0.2752171,0,0.3979673,0.3811693,0.5788603,0.9471092c0.0814028,0.2558355,0.214489,0.6667242,0.3126888,0.7946415
	c0.1757259-0.1860619,0.4987507-1.0737343,0.8191929-2.5260553l0.0167971-0.0736485
	c0.0904474-0.4212246,0.1938152-0.8993006,0.5478506-0.9664898c0.236455-0.0413465,0.4922905,0.1395473,0.7687979,0.5439739
	c0.4612799,0.6744747,1.5052977,1.4988346,3.1023321,2.4498205c0.462574-0.2506676,0.8695831-0.5672312,1.2106972-0.9445267
	c0.1434231-0.158927,0.248085-0.2971821,0.3372402-0.4147625c0.1886463-0.2506676,0.3398228-0.4496498,0.6305428-0.5065031
	c0.4250984-0.0891552,0.7171154,0.2015676,0.9755363,0.4548178c0.2041531,0.1989832,0.3992577,0.3695402,0.5762768,0.3501587
	c0.5026264-0.0503912,1.0659828-1.2442904,1.7184944-2.6268368c0.1834755-0.3889227,0.5000439-1.0646887,0.9535675-1.0646887
	c0.0116272,0,0.0232601,0,0.0348873,0.0012913c0.1188717,0.0077534,0.2015648,0.0620213,0.2454967,0.0917377
	c0.3747101,0.2506676,0.9225597,0.5375137,1.1228333,0.5568943c0.0038738,0,0.0077534,0,0.0116272,0
	c0.192522,0,0.5129642-0.4586945,1.1900253-1.5337219c0.3062286-0.4845371,0.7119465-1.0026684,1.1822739-1.6022034
	c0.1808929-0.231287,0.3708305-0.4754925,0.5672302-0.731328c0.2183628-0.2829695,0.6783543-0.7119474,1.0582294-0.5349283
	c0.2377434,0.1149974,0.2790928,0.4121799,0.2984734,0.5543118c0.1783104,1.2662563,0.5362225,2.2211189,0.5762749,2.3270721
	c0.1292076,0.329484,0.3953819,1.0181742,0.72616,1.0478935c0.1460056,0.0180893,0.3617878-0.1563444,0.5465584-0.3230247
	c0.2274094-0.2041531,0.4858284-0.4341459,0.7778473-0.3230257c0.2002716,0.0775261,0.275219,0.2635889,0.3359413,0.4134722
	c0.5426788,1.3476582,0.8023911,1.5156326,0.8889656,1.5259686c0,0,0.0012894,0,0.0025826,0
	c0.0555611,0,0.1989822-0.2261162,0.2958908-0.3760014c0.2170715-0.341114,0.5142555-0.8075619,1.0711479-1.2442904
	c0.2532501-0.197691,0.5323448-0.3669567,0.829525-0.5026274l0.3514519-0.1615124l-0.0814018,0.3785849
	c-0.1292076,0.5943642,0.0490952,1.1874399,0.462574,1.5492258c0.3023529,0.2635889,0.6512184,0.3359461,0.8760452,0.3514509
	l1.5531006-1.864501c0.0516853-0.0490999,3.2780571-2.9769955,3.3736725-3.0687361l0.1886482-0.1783104l0.1175804,0.2325783
	c0.0284233,0.0568533,0.0671844,0.1149979,0.1124153,0.1718488l0.0051689,0.005168
	c0.0193825,0.0232573,0.1472969,0.1692657,0.3359451,0.2726336c0.5362206,0.2958903,1.3760834,0.1188717,1.385128,0.1162891
	c0.9354782-0.2054443,1.6848984-0.7093625,2.2327499-1.0763192c0.4845352-0.3256102,0.7778435-0.5271754,1.0039597-0.3346548
	c0.2093201,0.1783104,0.120163,0.5581861-0.0038719,1.0827785c-0.06073,0.2571273-0.1731415,0.7364964-0.1137085,0.8372817
	c0.0736504,0.0814018,0.1757278,0.1408377,0.177021,0.1408377c0.0594368,0.0335932,0.1266251,0.0594358,0.2119064,0.0814018
	c0.3850441,0.0956144,0.758461,0.3101034,1.1189575,0.5181303c0.8618317,0.4974594,1.6073723,0.9264345,2.5557747,0.0012922
	c0.3281937-0.3217335,1.1913147-0.9535713,1.637085-0.7339144c0.4716187,0.2325792,0.5659409,0.236455,1.1732292,0.2571278
	l0.0697746,0.0025854c0.0245514,0,0.0465164,0.0012913,0.0697746,0.0012913c0.6770592,0,1.2404137-0.341114,1.6177063-0.5685244
	c0.4057198-0.2467914,0.6796455-0.500042,0.8812103-0.684814c0.2454987-0.2274103,0.4406052-0.4044266,0.665432-0.2933059
	c0.2532501,0.1266255,0.2119064,0.4548182,0.1628036,0.8346963c-0.0516853,0.4057183-0.1175804,0.9109302,0.1447144,1.196485
	c0.2080269,0.2261162,0.555603,0.2674656,0.8463249,0.2519588c2.869751-0.0116301,5.3350754-0.8967171,7.5368118-2.7056561
	c0.0788193-0.0646038,0.1576385-0.1395464,0.2416229-0.2157803c0.366951-0.3436995,0.8269424-0.7713838,1.5065842-0.6602626
	l0.1072464,0.016798l0.0413437,0.0994911c0.9768219,2.345161,0.9768219,2.3438678,3.4214859,1.3579974l0.1550522-0.0620213
	c1.0130005-0.4083033,1.7249527-0.8321109,2.2960587-1.1706424c0.8011093-0.4767838,1.3269882-0.792058,1.9394455-0.5530176
	c0.3165665,0.1253338,0.4457703,0.3152714,0.5594788,0.4819517c0.1020737,0.1511765,0.1989822,0.2933059,0.4573975,0.4199333
	c0.8954239,0.4380226,2.4343185,0.0258427,3.2858047-0.8876724c0.3101044-0.3320694,0.6357117-0.8411579,1.0130005-1.4303546
	c0.2442093-0.3811693,0.5090866-0.7946408,0.803688-1.2145741c0.0865707-0.1240425,0.3514557-0.5013351,0.7752609-0.5465586
	c0.1692581-0.0193806,0.3062286,0.0193808,0.5065002,0.0943234c0.3643646,0.1369636,0.6163254,0.2816782,0.7662201,0.368248
	c0.0491028,0.0271339,0.0865707,0.0503914,0.1175842,0.064604c0.1007843,0.0465147,0.5866165,0.0943232,2.664299-1.40968
	c0.4561081-0.3307781,0.8321152-0.5568945,1.3515396-0.8708747l0.2222366-0.1343785
	c0.5258789-0.3165655,1.2029419-0.7209922,1.7378693-0.2429143c0.227417,0.2041529,0.2894363,0.4780779,0.2958908,0.509086
	c0.0465164,0.2157804,0.0012894,0.4909967-0.3734207,1.1292956c-0.1537628,0.2610037-0.3165665,0.5052118-0.49617,0.7442496
	c-0.6137466,0.7894728-1.2313766,1.5388906-1.8399506,2.2327487l-0.2157822,0.2454996
	c-0.5491486,0.6227922-0.7998123,0.907053-0.8967209,1.4006352c-0.0555573,0.2752161-0.0400467,0.4974585-0.0271378,0.6925645
	c0.0193787,0.2803841,0.0361786,0.5452671-0.1757278,0.8049765c-0.2351608,0.2868466-0.5349274,0.3010592-0.8256531,0.316566
	c-0.2493744,0.0116291-0.5077896,0.0258427-0.8127213,0.1783104c-0.3449936,0.1731415-0.6628494,0.6861048-1.2959747,1.7055702
	c-0.2648849,0.4276848-0.329483,0.5711079-0.4095993,0.753294c-0.0852814,0.1912317-0.1834793,0.4083042-0.5142593,0.9781199
	l-0.0994949,0.1679716c-0.2338715,0.3992586-0.4186401,0.7132387-0.3436966,0.8514938
	c0.0297241,0.0542679,0.0917358,0.0788193,0.2093201,0.1201658c0.1498795,0.0542679,0.3566208,0.1266251,0.5090866,0.3501587
	c0.2080307,0.3062277,0.186058,0.6977348,0.1033707,0.9380646c-0.1330795,0.390214-0.4483566,0.5478497-0.8127289,0.7287426
	c-0.186058,0.0930319-0.3979645,0.197691-0.6189117,0.3501587c-0.2726288,0.1860619-0.4587021,0.4083033-0.7713852,0.7765512
	c-0.0878601,0.10466-0.186058,0.2196579-0.2958832,0.3475742c-0.819191,0.9471111-1.4639511,1.6952343-1.398056,2.5984135
	c0.0025864,0.0387611,0.0736542,0.9380665,0.6925735,1.3915901c0.2106171,0.1550522,0.4173431,0.2119064,0.6008224,0.2610054
	c0.2157822,0.0581417,0.4393082,0.1188717,0.511673,0.3553276c0.1020813,0.3294868-0.1925201,0.5853214-0.638298,0.9716587
	c-0.1679688,0.1460056-0.3617859,0.3152714-0.5659485,0.5142536c-0.8463211,0.8269424-1.2843475,1.5608559-1.5040054,2.0311775
	c-0.188652,0.4057198-0.7597504,1.6409683-0.3372345,2.4679108c0.2726288,0.5336342,0.9316025,0.9044704,2.0130844,1.1331692
	c0.5517273,0.1175804,1.1331711,0.2933083,1.2572174,0.7080708c0.080101,0.263586-0.0400543,0.5504341-0.3630829,0.8760452
	c-0.635704,0.6395893-0.8876648,1.4329395-1.1538391,2.2740936c-0.2390366,0.7507095-0.4845352,1.528553-1.0298004,2.1681442
	c-0.0865707,0.1020737-0.2907181,0.3424072-0.2687607,0.4742012c0.0025864,0.0155067,0.0103455,0.0594368,0.105957,0.116291
	c0.5323486,0.3152695,0.8127289,0.6357117,0.8566666,0.9819908c0.059433,0.4703217-0.3307724,0.8592491-0.6731873,1.2016525
	c-0.1175919,0.1175804-0.2338715,0.2338715-0.329483,0.3501587c-0.3139801,0.3811684-0.656395,0.9303131-0.5052109,1.3786736
	c0.0710678,0.2080269,0.22612,0.3178558,0.8062668,0.6628456c0.5116806,0.3049355,0.8902664,0.5245934,1.1758194,0.6899834
	c0.7675095,0.4457741,0.8863754,0.5142555,0.9716568,0.7455406c0.1718521,0.462574-0.0620193,0.8075638-1.5040054,2.8051491
	l-0.1253357,0.1718483c-1.0827713,1.4988365-1.3088989,1.8296127-1.2171555,2.2133675
	c0.0814056,0.3436966,0.366951,0.522007,0.6434631,0.6964455c0.285553,0.1795998,0.5801468,0.3656654,0.5736923,0.7261581
	c-0.0116348,0.5323448-0.6796417,0.8670006-1.4536133,1.254631c-0.7416611,0.3708305-1.5815277,0.7907639-1.6926422,1.3592911
	c-0.0348892,0.1808929-0.0258408,0.3501587-0.0155106,0.4380226c1.1771088,1.1409225,0.5504379,2.1681442-0.1963959,3.1230049
	c-0.3126831,0.4005508-0.3630829,0.6667213-0.16539,0.8915443c0.2312851,0.263588,0.4483566,0.5504341,0.656395,0.8269463
	c0.6279602,0.829525,1.2210312,1.6138306,2.2456665,1.9316864c0.0981903,0.0310059,0.2196503,0.0426407,0.3488617,0.0555573
	c0.3527451,0.033596,0.8876648,0.0839844,0.9303131,0.7442513c0.0335922,0.5258789-0.3721313,0.7946396-0.699028,1.0104179
	c-0.0994949,0.0658989-0.1976929,0.1305008-0.2842636,0.2002754l-0.4251022,0.3514519
	c-0.8075638,0.6667252-1.6422653,1.3567085-2.4188156,2.0764084c-0.3139725,0.2933044-0.0788116,0.6783562,0.3488617,1.2791748
	c0.3333664,0.4677391,0.677063,0.9522781,0.4186401,1.3657455c-0.1783066,0.2855606-0.4690323,0.3398285-0.8747559,0.413475
	c-0.2442093,0.0452271-0.5504379,0.1020813-0.9393539,0.2209473c-0.6202087,0.188652-1.2210312,0.4703217-1.786972,0.8347015
	c-1.5518112,1.0633926-1.6913605,1.6099548-1.6357956,1.8412399c0.0129242,0.0491028,0.0348816,0.1072464,0.0607224,0.1718597
	c0.0865707,0.2196503,0.2183609,0.5530167,0.1240387,0.9496918c-0.0400467,0.1731415-0.1188736,0.3346558-0.2299957,0.4845352
	l-0.0568466,0.0775223l-0.0956116,0.001297c-0.7558746,0.0103378-1.6538849,0.4961624-1.9885406,0.9264374
	c-0.12146,0.1563416-0.1149979,0.2364502-0.1098328,0.2571259c0.1447144,0.6047058,0.2945938,1.228775,0.9716568,2.095787
	c0.6008224,0.7675095,1.3179398,1.4355164,2.1332626,1.9872513l0.4470673,0.3010559l-0.5362244,0.0516891
	c-0.6137466,0.059433-1.1861496,0.2287064-1.704277,0.5039139c-0.9936218,0.5258865-1.5944519,1.3334503-1.7934341,1.599617
	c-0.2803955,0.3760071-0.4483643,0.6912842-0.5840378,0.9445343c-0.2131958,0.4005432-0.366951,0.6886826-0.7545853,0.7455444
	c-0.2299957,0.0348892-0.4431915-0.0335999-0.6473389-0.1007919c-0.2442093-0.080101-0.4741974-0.1550522-0.7623367-0.0775223
	c-0.0878601,0.0245514-0.142128,0.0555649-0.1757278,0.1007919c-0.0814056,0.1124115-0.0323029,0.3243179,0.06073,0.4638672
	c0.3579102,0.5375137,0.4573975,0.9251404,0.306221,1.2197418c-0.1460037,0.2868423-0.4754868,0.3876343-1.1137848,0.4935837
	c-1.8166924,0.307518-2.7250404,0.4651566-3.3000259,0.3708344c-0.3837471-0.0633163-0.4509392-0.0051651-0.4586983,0.0090485l0,0
	c0.0012894,0-0.0090485,0.0426407,0.0361786,0.16539c0.2648811,0.7132416,0.2829704,1.2119904,0.0503922,1.5298462
	c-0.3088074,0.4212189-0.9445267,0.390213-1.5052948,0.3643646c-0.188652-0.0090485-0.369545-0.0167999-0.522007-0.0090485
	c-1.4187279,0.0904465-2.8632927,0.0994949-4.2600555,0.1072464c-0.6008263,0.0038681-1.2016525,0.0077438-1.8037682,0.0180893
	c-0.1369629-0.001297-0.3036461-0.0090485-0.4574051-0.0206757c-0.3333588-0.0245438-0.6783524-0.0503922-0.8062706,0.1033707
	c-0.0801086,0.0969009-0.1408386,0.3372421,0.0193825,0.9316025c0.071064,0.2623062,0.0400505,0.472908-0.0904465,0.6253815
	c-0.2661743,0.3062286-0.8166084,0.2416153-1.2597961,0.1899414l-0.0865746-0.0103378
	c-2.1771889-0.2467957-3.9344444-0.6654358-5.5314789-1.3153534l-0.5904884-0.2765121
	c-3.7561378-1.7585449-7.6401863-3.5791092-11.8356323-4.3685837c-0.5646477-0.1059494-1.5453491-0.5814362-3.0997448-1.3489456
	c-0.846323-0.4173508-1.3954697-0.7300415-1.8373661-0.9820023c-0.2196541-0.1266251-0.418642-0.2403259-0.6214981-0.3475723
	c-1.9988785-1.0633926-3.849165-1.3101883-5.9914665-1.5944519c-2.9408188-0.3889236-4.4138126-0.5866165-6.1090469-0.0490952
	c-1.484622,0.4729004-2.5092564,1.0776062-4.6476812,3.4124298c-2.0117979,2.1965637-4.2910614,4.4319-6.7757692,6.6452637
	c-0.6124563,0.3837509-1.2365401,0.6111603-1.8800046,0.6925659C1.907173,85.8033676,1.6138674,85.8408432,1.3102232,85.8408432z
	 M0.546593,84.3898163c-0.1615124,0.3243179-0.1989824,0.6059952-0.1033678,0.7752609
	c0.2287017,0.4070129,1.2055295,0.2816772,1.6228776,0.2274094c0.5891964-0.0762329,1.1603062-0.2842636,1.6991112-0.6189117
	c2.4485292-2.1836472,4.7174568-4.4112244,6.7215004-6.5974579c1.9678688-2.1474762,3.0932875-2.9705429,4.8156538-3.5183868
	c1.7766361-0.5659485,3.2780571-0.3643723,6.2705574,0.0323029c2.1862335,0.2907181,4.068819,0.5400925,6.1284275,1.637085
	c0.2067356,0.1111221,0.4083061,0.22612,0.633131,0.3527451c0.4354401,0.248085,0.9794102,0.5581894,1.8153973,0.9703674
	c1.3192329,0.6512146,2.4601574,1.2132874,3.0002537,1.3166504c4.2432556,0.7998123,8.1505623,2.629425,11.9273682,4.3983002
	l0.5814476,0.2726364c1.5543938,0.6305389,3.2793427,1.0414276,5.4190636,1.2830505l0.0891533,0.0116272
	c0.2765121,0.0335999,0.7907677,0.0917435,0.9199791-0.0581436c0.0529747-0.0620117,0.0348854-0.1834717,0.0116272-0.2726288
	c-0.1679726-0.6227951-0.1498833-1.0298004,0.0555611-1.2778854c0.2545395-0.3088074,0.7028999-0.2726288,1.1331673-0.2442093
	c0.1421318,0.0116348,0.2790947,0.0323029,0.4238091,0.0193787c0.6034088-0.0090485,1.2055244-0.0129242,1.8063545-0.0167923
	c1.3915901-0.0077515,2.8296928-0.0167999,4.2367973-0.105957c0.1692581-0.0116348,0.3643684-0.0012894,0.5659447,0.0077515
	c0.4651566,0.021965,0.9910355,0.0491028,1.174511-0.2054443c0.1447144-0.1976852,0.1098289-0.6008148-0.1007843-1.1654739
	c-0.0310135-0.0852814-0.1279182-0.344986,0.0180893-0.533638c0.1951065-0.2597046,0.6331253-0.1899414,0.819191-0.1602173
	c0.5181351,0.0865707,1.4652443-0.0775223,3.1850204-0.366951c0.5478592-0.0917435,0.7726746-0.1692657,0.8334045-0.2881393
	c0.0762253-0.1485901-0.0258408-0.4431915-0.2842636-0.8308182c-0.1628036-0.2429199-0.248085-0.6305466-0.0529785-0.9044647
	c0.0865707-0.1227493,0.2157822-0.202858,0.39151-0.2493744c0.3927994-0.1085358,0.7222748-0.0025864,0.983284,0.082695
	c0.1757278,0.0568466,0.3230286,0.1085358,0.4690323,0.0852814c0.1847687-0.0271378,0.2648849-0.1615143,0.4690323-0.5452652
	c0.1408386-0.2648773,0.3178558-0.5943604,0.6163254-0.9949112c0.2106171-0.2829742,0.8514938-1.1435089,1.9213562-1.7107315
	c0.4225159-0.2235336,0.8799133-0.3837509,1.3618698-0.4754944c-0.6861038-0.5142593-1.2985535-1.1137848-1.8244476-1.7856827
	c-0.7287445-0.9354782-0.8954239-1.6306305-1.0427246-2.2443771c-0.0297165-0.1240387-0.0232544-0.3243179,0.1808929-0.5866165
	c0.3798752-0.4897003,1.3321533-1.0207596,2.1862335-1.0724411c0.0529785-0.083992,0.0904465-0.1744385,0.1137009-0.2674713
	c0.0659027-0.2790985-0.0271378-0.511673-0.1072388-0.719696c-0.0323029-0.0814056-0.0620193-0.1563492-0.0775223-0.2209473
	c-0.1447144-0.5995255,0.4251022-1.3166428,1.7973099-2.2560043c0.5995255-0.3863449,1.232666-0.6822281,1.8877487-0.8837967
	c0.4095993-0.1253357,0.7274628-0.1847687,0.9820023-0.2312851c0.3759995-0.0697784,0.5323486-0.1020813,0.6176147-0.2377472
	c0.12146-0.1938171-0.1472931-0.571106-0.4057159-0.9367676c-0.3940964-0.5543098-0.8837967-1.2429962-0.2971878-1.7869759
	c0.7843018-0.7300415,1.6254654-1.423893,2.4381866-2.0932083l0.4238129-0.3501625
	c0.0956116-0.0814056,0.2067413-0.1537628,0.3165741-0.22612c0.3398209-0.2248306,0.5452576-0.3760033,0.5271683-0.6628494
	c-0.020668-0.3023529-0.1666794-0.344986-0.5814362-0.3850441c-0.1408463-0.0129204-0.2894287-0.0271339-0.4251099-0.0697746
	c-1.1435089-0.3553314-1.803772-1.2274971-2.440773-2.0699463c-0.2041473-0.2713394-0.4160538-0.5504303-0.639595-0.8049774
	c-0.4922867-0.5633583-0.0064545-1.1822739,0.1524658-1.3864212c0.7248611-0.9251442,1.1977768-1.7081528,0.1873474-2.6488037
	l-0.0465164-0.0426407l-0.0116348-0.0633125c-0.0025787-0.0129166-0.0568466-0.3101044,0.0077515-0.6395874
	c0.1472931-0.7558746,1.0789032-1.221035,1.8993835-1.633213c0.5775681-0.2894287,1.233963-0.6176262,1.2391281-0.9148064
	c0.0025787-0.1343803-0.1473007-0.236454-0.3927994-0.390213c-0.308815-0.1951065-0.6951523-0.4380226-0.8127289-0.934185
	c-0.1356735-0.5711098,0.1628036-0.9858742,1.2791748-2.5312233l0.1240387-0.1718483
	c1.2856445-1.7792206,1.5518112-2.1862335,1.4561996-2.4433594c-0.0361786-0.0981979-0.1253357-0.1524658-0.803688-0.5452652
	c-0.2842636-0.1653862-0.6667252-0.3863373-1.1796875-0.6925659c-0.5892029-0.3501587-0.8540878-0.5194244-0.9729538-0.8708763
	c-0.1692581-0.4961624,0.0245514-1.0853615,0.5698166-1.7495003c0.1046677-0.1266251,0.2299957-0.2519608,0.3553314-0.3785858
	c0.2945938-0.2933083,0.5982361-0.5969505,0.5633545-0.8786278c-0.0271378-0.2157784-0.2519608-0.4509392-0.6693039-0.6964417
	c-0.1666794-0.0982018-0.2648849-0.2286987-0.2920151-0.3863373c-0.0516815-0.3101082,0.202858-0.6111641,0.3553314-0.7894745
	c0.494873-0.5814438,0.7184067-1.2869301,0.9548569-2.0350571c0.2687607-0.8476143,0.5465546-1.7236595,1.2481766-2.430439
	c0.2054367-0.2067375,0.2997665-0.3811684,0.2674637-0.4922905c-0.0491028-0.1653881-0.3747101-0.313982-0.9664917-0.4380226
	c-1.2029419-0.2545433-1.9471893-0.6925659-2.277977-1.3360329c-0.4561005-0.8915462-0.0284271-2.028595,0.332077-2.8064404
	c0.2325821-0.5000439,0.6951523-1.2791805,1.5854034-2.1461773c0.2093201-0.2054424,0.4083023-0.3785839,0.5827332-0.5297604
	c0.2442093-0.2131977,0.5491486-0.478075,0.5207138-0.5659389c-0.0090485-0.0323048-0.143425-0.0684834-0.2429199-0.0956173
	c-0.1925201-0.0529766-0.4586945-0.1240425-0.7274551-0.3217335c-0.7494202-0.5504322-0.841156-1.5634384-0.8489075-1.677145
	c-0.0788116-1.0634003,0.6486359-1.9045525,1.4897919-2.8787975c0.1111221-0.1292114,0.2067413-0.2429142,0.2945938-0.346283
	c0.3217316-0.379878,0.533638-0.6318369,0.8476181-0.8476171c0.2442093-0.1666803,0.4690323-0.2790928,0.6667175-0.3772926
	c0.3527451-0.175725,0.5413895-0.2778015,0.6189117-0.5077944c0.0555573-0.1640978,0.06073-0.4199333-0.0581436-0.5956593
	c-0.080101-0.1175804-0.1899414-0.1563444-0.3165665-0.2015676c-0.1408386-0.0503912-0.3178558-0.1111212-0.4199295-0.2971821
	c-0.1834717-0.3307781,0.0284348-0.6899815,0.3488617-1.2352457l0.0981979-0.1679726
	c0.3217316-0.5517263,0.4147644-0.758462,0.49617-0.940649c0.083992-0.187355,0.1563492-0.3501587,0.4354324-0.7998085
	c0.6731873-1.0814877,1.0091324-1.6254606,1.4510345-1.847703c0.3785782-0.1899376,0.7054825-0.2067356,0.9664917-0.2196569
	c0.2842636-0.0142126,0.4251022-0.0271339,0.5452576-0.1744337c0.1098251-0.1343784,0.105957-0.2687569,0.0878677-0.533637
	c-0.0142212-0.209321-0.0310135-0.4690332,0.0323029-0.7946405c0.1188736-0.5969501,0.4083023-0.9264369,0.9884567-1.5828223
	l0.2144852-0.244206c0.6047058-0.6873963,1.2158661-1.4303544,1.8231583-2.2107825
	c0.1692581-0.2261164,0.3230209-0.4574034,0.4703217-0.7067796c0.3734207-0.6382965,0.3398209-0.7998089,0.3281937-0.8527855
	c-0.001297-0.0025852-0.0400543-0.1796017-0.1757278-0.2997675c-0.2997742-0.2687569-0.7248688-0.0478085-1.2468719,0.2661716
	l-0.2545471,0.1537592c-0.511673,0.3088121-0.8812103,0.5323458-1.3231125,0.8527855
	c-2.4162292,1.7507942-2.8671646,1.5363052-3.0596848,1.4445672c-0.0361786-0.0180893-0.082695-0.043932-0.1408386-0.0775254
	c-0.1485901-0.0852785-0.3734207-0.2157803-0.7093658-0.341114c-0.1692657-0.064604-0.2364578-0.0801105-0.3269043-0.0723574
	c-0.248085,0.0271339-0.4315567,0.2868464-0.5000381,0.3850462c-0.2933044,0.4160566-0.5543137,0.8243599-0.7946396,1.2003613
	c-0.3876343,0.6059947-0.7222824,1.1280017-1.0569382,1.4872079c-0.9716568,1.0414319-2.6772308,1.4859138-3.7406235,0.970366
	c-0.3501663-0.1718488-0.4922867-0.3811698-0.6072922-0.5491414c-0.1020737-0.1498823-0.1757278-0.2571268-0.3811646-0.3385291
	c-0.4199295-0.1653891-0.7907639,0.043932-1.5983276,0.5245929c-0.5827332,0.346282-1.3088989,0.777843-2.3503265,1.1977758
	l-0.1537628,0.0620213C69.485199,8.7554941,69.3482361,8.7206068,68.29776,6.2074738
	c-0.4315567-0.0361786-0.7636337,0.2790933-1.0776062,0.5711074c-0.0878677,0.0826931-0.1744385,0.1628036-0.2597046,0.2325783
	c-2.2405014,1.8412404-4.8595924,2.7818894-7.7797356,2.7935195c-0.3501587,0-0.8217773-0.0374699-1.1344604-0.3772926
	c-0.3837547-0.4173479-0.3023529-1.0478935-0.2442055-1.5078797c0.0180893-0.131793,0.0387611-0.2997675,0.0348892-0.3979673
	c-0.0594406,0.0452232-0.143425,0.1227489-0.2157822,0.1886463c-0.2119064,0.195106-0.5026245,0.4638629-0.9393578,0.7300372
	c-0.4173508,0.2532501-1.0362625,0.6266689-1.8192749,0.6266689c-0.0271339,0-0.0568542,0-0.0839882-0.0012913l-0.071064-0.0025854
	c-0.6344223-0.021966-0.7843018-0.0271339-1.3308601-0.2971821c-0.1421318-0.0646038-0.7713852,0.2506676-1.1951904,0.6641388
	c-1.1564293,1.133172-2.1461792,0.560771-3.0196342,0.0568533c-0.3514519-0.2028589-0.6861038-0.3953819-1.0194702-0.4780779
	c-0.12146-0.0297194-0.2222404-0.0697746-0.3101044-0.1214571c-0.0155067-0.0077534-0.1576385-0.0917377-0.2739296-0.2209482
	c-0.2002716-0.2196569-0.0943222-0.665431,0.0271339-1.1822724c0.0465164-0.2002764,0.12146-0.5142565,0.1201668-0.6615539
	c-0.1188736,0.0503912-0.3424072,0.1989822-0.5271797,0.3243165c-0.5400963,0.36308-1.3579941,0.9135146-2.3645439,1.1331716
	c-0.0413475,0.0090446-0.9923363,0.2119045-1.6551781-0.1563444c-0.0516853-0.0284252-0.3385315-0.2119031-0.4522324-0.3772922
	l-0.0025826,0.0025849c-0.0090446-0.0090446-0.0167961-0.0193806-0.0245514-0.0297189
	c-0.6731834,0.6137471-3.0726089,2.7909341-3.1889,2.8955932l-1.6551781,1.9898348l-0.0917358-0.0012913
	c-0.2648849-0.0038767-0.7752571-0.0684805-1.2145729-0.4509439c-0.4302673-0.3760014-0.6589661-0.9432325-0.6344223-1.5414762
	c-0.1524658,0.0865707-0.2958908,0.1847706-0.4328499,0.2920151c-0.5052109,0.3953819-0.7817192,0.8308191-0.984581,1.1473846
	c-0.2080269,0.329484-0.3850479,0.5814457-0.6706009,0.5530176c-0.4548225-0.0529766-0.8437424-0.8708744-1.1964836-1.7482109
	c-0.0426407-0.1059532-0.0801125-0.1963997-0.1227493-0.2131977c-0.0594406-0.0193806-0.248085,0.131793-0.3785858,0.2480822
	c-0.2364521,0.2119036-0.5116711,0.4496498-0.8411579,0.4212246c-0.5698185-0.0516853-0.8708744-0.8295279-1.0504761-1.2933903
	c-0.0426407-0.109828-0.4160557-1.1034536-0.599535-2.4123507c-0.0284252-0.2041531-0.065897-0.2506676-0.0839863-0.2597122
	c-0.0620213-0.0413465-0.35145,0.1214571-0.5814457,0.4212246c-0.1963997,0.2571268-0.3889198,0.5013351-0.5711098,0.7339134
	c-0.4625721,0.5917816-0.863121,1.1021614-1.1577206,1.5699015c-0.8825016,1.401926-1.1603031,1.7507935-1.567318,1.7120323
	c-0.3579121-0.0348873-1.0543499-0.4574032-1.2933903-0.6176243c-0.033596-0.0206747-0.0271339-0.0245485-0.0736485-0.0323019
	c-0.0969086,0-0.2765102,0.1460085-0.5917816,0.8191919c-0.7998104,1.6952343-1.3205261,2.7986879-2.0415192,2.8710451
	c-0.3695412,0.038764-0.648634-0.2261162-0.8876743-0.4586945c-0.2519588-0.2467909-0.4173489-0.3953829-0.6279602-0.3514509
	c-0.1408405,0.0284262-0.2196541,0.1253338-0.3979645,0.3604956c-0.094326,0.1253338-0.2054443,0.2726336-0.3579121,0.4406052
	c-0.3953819,0.4367285-0.8708744,0.7998085-1.4148483,1.0789013l-0.0943222,0.0490999l-0.0917377-0.0542679
	c-1.7236614-1.0181742-2.8103161-1.8761272-3.3194046-2.6216688c-0.1899376-0.2790928-0.341114-0.3785839-0.379878-0.379878
	c-0.0956144,0.0180893-0.2015676,0.5065031-0.2377462,0.6667242l-0.0155039,0.0697746
	c-0.6253748,2.8348675-1.0375557,2.8516655-1.1913166,2.8568325c-0.005168,0-0.0090446,0-0.0142126,0
	c-0.3269014,0-0.4806614-0.4793682-0.6744757-1.0853634c-0.0503912-0.1550531-0.1162891-0.3592033-0.1770163-0.5090866
	c-0.0077534,0.043932-0.016798,0.0891552-0.0258427,0.1343784c-0.0620213,0.3359461-0.1550531,0.8437414-0.4044266,1.4587803
	c-0.3178568,0.7881813-0.6822281,1.2468758-0.9316044,1.4923725c-0.1628036,0.1615124-0.4651566,0.462574-0.9496937,0.6809368
	c-0.4431915,0.2002754-0.7959328,0.1951084-1.0569391,0.187355c-0.2351608-0.0012913-0.3592033-0.0012913-0.4599881,0.0994911
	c-0.3062272,0.3126888-0.3010592,0.8889656-0.2971826,1.4975452c0.0025854,0.2816753,0.0051684,0.572401-0.0232573,0.8566589
	c-0.0930319,0.950985-0.3772926,1.8890514-0.6525092,2.7973957c-0.1072445,0.3553295-0.214489,0.7119465-0.3113947,1.0685673
	c-0.0969086,0.3592033-0.2571273,0.5943642-0.4884138,0.7171154c-0.3734164,0.1989822-0.8178983,0.0490971-1.2507529-0.0994911
	c-0.3669567-0.1227512-0.6550946-0.1266251-0.7959323-0.0038757c-0.1563444,0.1356716-0.1395464,0.4251003-0.0969086,0.6421757
	c0.1240425,0.6460514,0.1162891,1.3347416,0.1072445,2.0014629c-0.0193806,1.660347-0.0374699,3.2276649,1.8399496,4.2070751
	c0.2635889,0.1369629,0.4522352,0.3734207,0.560771,0.7003174c0.1524677,0.462574,0.0478086,1.1422157-0.3449907,1.3773804
	c-0.4496503,0.2687569-0.992332-0.131794-1.5660243-0.5543098c-0.4612799-0.341114-0.9858725-0.7235794-1.2920995-0.582737
	c-0.2390378,0.1137047-0.3462822,1.0013771-0.4819522,2.1242104c-0.1343784,1.1176682-0.2015676,1.6771469-0.1602209,2.2237053
	c0.0826933,1.07761,0.4664478,2.1771889,1.1099124,3.1798553l0.0258427,0.0581436l0.9755337,3.9021378l1.5324311,6.2796059
	c1.0814872,2.9602013,2.0453935,5.987587,2.8607087,8.9762154c0.4108887,1.5065918,0.5284691,2.0596123,0.621501,2.5027924
	c0.0865698,0.4121819,0.1498833,0.710659,0.4095955,1.5879898c0.2325783,0.7830124,0.4742012,1.5298386,0.7029028,2.2340317
	c0.8669977,2.6733551,1.5505199,4.7859421,0.8489084,6.2421341c-0.0025854,0.0064545-0.2945995,0.6059952-0.7623386,1.3877106
	c-0.4638624,0.7752609-0.8334045,1.292099-1.133172,1.6965332c-2.0324726,2.7418365-4.2703896,4.778183-4.2923551,4.798851
	H5.5857801C4.0443044,82.1519012,2.3477783,83.3690567,0.546593,84.3898163z M49.6928864,38.6029816
	c4.943573-0.3604965,9.8509598-1.315361,14.5335312-2.9356499c2.3761673-0.830822,4.7484665-1.6810188,7.0858765-2.6100426
	l7.0057526-2.8064384l-7.0871658,2.5945358c-2.3477402,0.9044685-4.7213287,1.7275391-7.1013794,2.5325127
	c-4.502964,1.5130501-9.2010345,2.3671265-13.927536,2.7327919c3.2690086-3.1630554,6.4643707-6.2382545,9.4723816-9.111887
	l4.3582535-0.8915482c1.4923706-0.2739277,2.9317703-0.7520027,4.3672943-1.2339573
	c2.8632965-0.9832897,5.6232071-2.2521286,8.2410049-3.756134c-2.690155,1.36833-5.4849625,2.5144234-8.346962,3.4382744
	c-1.4368134,0.4302692-2.8749161,0.8980103-4.3556671,1.1564312l-3.6695595,0.7171154
	c2.6811028-2.557066,5.2162056-4.9577827,7.4928856-7.0819969c1.3812561-1.2933903,2.6656113-2.4821243,3.8465805-3.5661907
	l0.0555573-0.0180893c3.1902008-1.0207615,6.3816833-2.0363503,9.5331116-3.1824408
	c-3.0015488,0.7881813-5.9682159,1.6913576-8.9335785,2.5997019c4.2174149-3.8556232,6.8662186-6.1452246,6.8662186-6.1452246
	s-2.7896347,2.210783-7.1233444,6.0043859l0.6861038-1.8929272c0.3049316-0.8269424,0.593071-1.6810217,0.9122238-2.4859982
	c0.6912766-1.6254606,1.4587784-3.2212048,2.3025208-4.7820606c-0.9703674,1.484622-1.8334885,3.0441847-2.5790405,4.6593094
	c-0.3747101,0.8256512-0.6421738,1.6577644-0.9677811,2.4859991l-0.9341888,2.4898787l-0.020668,0.0542679
	c-1.2158661,1.0698566-2.5350952,2.2482548-3.9473648,3.5364742c-2.2947693,2.0867424-4.8311577,4.4538651-7.5070953,6.9786301
	c0.6835213-3.0002518,1.5027161-5.970789,2.4937515-8.8857651c1.0672722-3.1656456,2.3038101-6.2770195,3.6954041-9.3237896
	c-1.5505142,2.969245-2.9007645,6.0470257-4.0339355,9.2049179c-1.1176605,3.1255856-2.0363426,6.3248272-2.7534637,9.5679932
	c-3.0416031,2.8736286-6.2679749,5.9539909-9.5834999,9.1157608c0.9083443-4.4654961,1.8528709-8.9167786,2.8374481-13.3706417
	l0.7649231-3.5119247c0.2157784-1.182272,0.6292496-2.298645,0.9290199-3.464119l1.9148903-6.9308214l-2.121624,6.8700914
	l-0.5168419,1.721077c-0.1834755,0.5698185-0.3385315,1.1628914-0.4586945,1.7443333l-0.8011017,3.5041752
	c-1.0789032,4.6463909-2.122921,9.3121624-3.1178322,13.9805164c-2.1151695,2.0169678-4.2600555,4.0610695-6.411396,6.1012917
	c-2.7935181,2.6604309-5.5792847,5.311821-8.3043251,7.90765l3.7910156-20.5611763
	c0.6886902-3.5597363,1.5595665-7.088459,2.6862755-10.535778c0.5362206-1.7301235,1.2003593-3.4266491,1.7805099-5.1464329
	l1.7934341-5.1451397l-1.9110146,5.102499c-0.6202087,1.7081566-1.3205261,3.3827152-1.9006805,5.1102543
	c-1.1667633,3.447319-2.062191,6.9825039-2.7831802,10.5486965l-4.0882034,21.2304859
	c-1.4161415,1.3489494-2.820652,2.6849785-4.1876965,3.9874153c-2.0906181,1.9962921-4.129549,3.909893-6.0173092,5.7886086
	c-0.6667213,0.653801-1.2985611,1.3101921-1.9174767,1.9639854l1.7404575-12.4519615
	c0.3398228-2.2753868,0.5853195-4.575325,0.8424492-6.8584595l0.7171154-6.8688049
	c0.8760452-9.1571045,2.4937534-18.2366886,4.8040237-27.1483002c-1.2507496,4.4293165-2.3270683,8.9116116-3.2095757,13.4326687
	c-0.8708744,4.5236397-1.4923744,9.0963802-1.9756203,13.6742878l-0.7636299,6.8597527
	c-0.2739277,2.2883072-0.5323429,4.5636978-0.8889637,6.8390808l-1.9432945,13.2414398
	c-0.8889637,0.960022-1.7314148,1.9032593-2.5273495,2.7961044c-0.7507076,0.8347015-1.4768677,1.6254654-2.1771851,2.3722916
	c0.1007824-1.9846725,0.1188717-3.9732056,0.021965-5.9591599c-0.1227493-2.3322411-0.3734159-4.6748123-0.8437405-6.9605446
	l-1.4600716-6.8261604c-0.2002764-1.1409225-0.3979673-2.2818489-0.5284691-3.4331093
	c-0.1524677-1.1486778-0.2467909-2.3051071-0.324316-3.460247c-0.2984762-4.6295929-0.0878639-9.2850266,0.3772926-13.9068661
	c0.4238071-4.629591,1.1008673-9.2359238,1.7805128-13.8383827c-0.7855959,4.5856609-1.5699005,9.1764908-2.1022463,13.8060837
	c-0.5039177,4.629591-0.7520027,9.3031178-0.4897051,13.9663067c0.0697737,1.1641808,0.1550531,2.3309479,0.2997675,3.4899597
	c0.1227484,1.1615944,0.3126888,2.3154411,0.5065031,3.4679985l1.4058027,6.8352051
	c0.8592482,4.4461174,0.9664898,9.0007706,0.7003183,13.5166473c-1.2765961,1.3722076-2.133255,2.1590958-2.6966114,2.6320114
	c-0.2752161,0.2312851-0.6008263,0.5581894-1.2520447,1.211998c-0.6615534,0.6641388-0.8256512,0.8682861-0.7675066,0.9690704
	c0.0878639,0.1524658,0.6499262,0.0193787,1.0504761-0.1615143c0.4393148-0.1989822,0.7016096-0.4651566,0.9290199-0.6860962
	c0.4561119-0.4470673,0.9664888-0.8359985,1.4135561-1.292099c0.5013351-0.510376,1.2765961-1.2507553,2.4407759-2.2017441
	c1.5595646-0.3747101,3.4951305-0.6938629,5.7265835-0.795929c2.1746025-0.0994949,4.3556652,0.1770172,6.5380249,0.4638672
	l6.54319,0.925148c2.1746025,0.3256073,4.3595428,0.7003174,6.5612793,0.900589
	c2.1939888,0.2222366,4.3931427,0.4380188,6.6026306,0.5258789c1.1034508,0.0491028,2.2146568,0.0491028,3.3155251,0.0323029
	c1.0995789-0.0129166,2.1991501,0.0103455,3.3013115,0.023262c4.4060669,0.0736465,8.8172836,0.2041473,13.2259293,0.1240387
	c-4.409935-0.021965-8.8108253-0.2545395-13.218174-0.4315567c-2.205616-0.1085358-4.4189835-0.0025864-6.6077957-0.1188812
	c-2.1952782-0.1059494-4.3840942-0.3372421-6.5754929-0.5775681c-2.1888161-0.2157745-4.350502-0.6047058-6.532856-0.9496918
	l-6.5444813-0.9781265c-2.1810627-0.3036423-4.3944321-0.6047058-6.6336365-0.5207138
	c-1.6655178,0.0516891-3.327158,0.2442093-4.9642448,0.5672379c0.5775661-0.6383057,1.1680565-1.2985611,1.7779274-1.9950027
	c0.8191891-0.9445267,1.6706848-1.9213486,2.5661106-2.9123917l6.3183651-1.4445572
	c2.293478-0.5052109,4.6011677-0.9380646,6.9153156-1.3218231c4.6295929-0.7610435,9.3069916-1.2468719,13.9986076-1.3114815
	c2.3438644-0.0310097,4.7019501,0.021965,7.0574417-0.1330795c2.3529129-0.143425,4.696785-0.3966751,7.0238495-0.7623367
	c4.6489754-0.7623329,9.221714-1.9278069,13.6936684-3.3749619c-4.5016785,1.3554192-9.08992,2.4265594-13.737606,3.0907021
	c-2.3218994,0.3436966-4.6567268,0.5840302-6.9993019,0.708065c-2.3399925,0.1369667-4.6864433,0.0684814-7.043232,0.0826988
	c-4.7135773,0.0310097-9.4194069,0.4871178-14.0709648,1.2184486c-2.3257751,0.369545-4.6450977,0.7881813-6.9463234,1.2778816
	l-5.5327721,1.233963c0.5698185-0.616333,1.1538467-1.2365417,1.7714653-1.8580475
	c1.8477039-1.8877525,3.8620834-3.8271942,5.928154-5.8519173c1.4070969-1.3747902,2.8529549-2.7883492,4.3130302-4.2161179
	c7.1013756-0.8773384,14.1523628-2.1513481,21.1051521-3.8220329c3.5558548-0.8579559,7.0858688-1.8102303,10.5848732-2.869751
	c3.4912567-1.0827827,6.9502029-2.2676392,10.3703918-3.5494003c-6.9036865,2.3890915-13.9288292,4.4151039-21.032795,6.0844955
	c-6.7370071,1.5634384-13.5579987,2.7405396-20.4203377,3.5636101c2.6410484-2.5816154,5.3389549-5.217495,8.0433159-7.8611336
	C45.3914871,42.7738724,47.5557556,40.6716309,49.6928864,38.6029816z"/>
<g>
	<path d="M22.8162689,34.5620155c1.9667969,0,3.5185547,0.5058594,4.6557617,1.5175781
		s1.7055664,2.3369141,1.7055664,3.9741211c0,1.6459961-0.5683594,2.9682617-1.7055664,3.9682617s-2.6889648,1.5-4.6557617,1.5
		h-2.9033203v3.8144531l1.8408203,0.3544922v2.0664063H14.637558v-2.0664063l1.8291016-0.3544922V36.9946327l-1.8291016-0.3540039
		v-2.0786133h1.8291016H22.8162689z M19.9129486,42.8647499h2.9033203c0.9599609,0,1.6855469-0.2617188,2.1772461-0.7851563
		c0.4916992-0.5239258,0.737793-1.1914063,0.737793-2.0019531c0-0.8271484-0.2460938-1.5097656-0.737793-2.0493164
		s-1.2172852-0.809082-2.1772461-0.809082h-2.9033203V42.8647499z"/>
	<path d="M37.993515,34.5620155c1.9511719,0,3.4819336,0.4472656,4.5913086,1.3408203
		s1.6640625,2.1274414,1.6640625,3.7021484c0,0.8662109-0.2324219,1.6181641-0.6962891,2.2558594
		c-0.4643555,0.6376953-1.1450195,1.1533203-2.0419922,1.546875c1.0151367,0.2998047,1.7446289,0.796875,2.1894531,1.4941406
		c0.4443359,0.6972656,0.6665039,1.5605469,0.6665039,2.5927734v0.8740234c0,0.3769531,0.074707,0.6708984,0.2246094,0.8789063
		c0.1494141,0.2089844,0.3969727,0.3330078,0.7431641,0.3730469l0.425293,0.0585938v2.078125h-1.7822266
		c-1.1254883,0-1.9160156-0.3027344-2.3725586-0.9091797c-0.4560547-0.6064453-0.684082-1.3896484-0.684082-2.3505859v-0.9794922
		c0-0.8349609-0.2226563-1.4902344-0.6669922-1.9667969c-0.4448242-0.4755859-1.0722656-0.7255859-1.8823242-0.75h-2.8208008
		v4.5351563l1.8408203,0.3544922v2.0664063h-7.1162109v-2.0664063l1.8291016-0.3544922V36.9946327l-1.8291016-0.3540039v-2.0786133
		h1.8291016H37.993515z M35.5506439,42.1440468h2.3837891c0.9599609,0,1.6801758-0.2045898,2.1601563-0.6142578
		c0.4794922-0.4091797,0.7197266-0.9995117,0.7197266-1.7714844c0-0.7714844-0.2382813-1.3876953-0.7138672-1.8481445
		c-0.4760742-0.4604492-1.1787109-0.690918-2.1069336-0.690918h-2.4428711V42.1440468z"/>
	<path d="M62.6009369,43.2895546c0,2.5205078-0.7202148,4.6025391-2.159668,6.2480469
		c-1.4399414,1.6455078-3.324707,2.4677734-5.6533203,2.4677734c-2.3212891,0-4.1958008-0.8222656-5.6240234-2.4677734
		c-1.4277344-1.6455078-2.1420898-3.7275391-2.1420898-6.2480469V43.029789c0-2.5039063,0.7124023-4.5820313,2.1362305-6.2353516
		c1.4243164-1.6538086,3.296875-2.4804688,5.6181641-2.4804688c2.3286133,0,4.2148438,0.8266602,5.6586914,2.4804688
		c1.4438477,1.6533203,2.1660156,3.7314453,2.1660156,6.2353516V43.2895546z M59.1663666,43.0063515
		c0-1.7792969-0.3701172-3.2241211-1.109375-4.3344727c-0.7397461-1.1098633-1.8334961-1.6650391-3.2807617-1.6650391
		c-1.4477539,0-2.527832,0.5512695-3.2397461,1.6533203c-0.7124023,1.1025391-1.0683594,2.5512695-1.0683594,4.3461914v0.2832031
		c0,1.8115234,0.3598633,3.2695313,1.0800781,4.3759766c0.7197266,1.1064453,1.7998047,1.6591797,3.2397461,1.6591797
		c1.4555664,0,2.5493164-0.5527344,3.2807617-1.6591797c0.7319336-1.1064453,1.0976563-2.5644531,1.0976563-4.3759766V43.0063515z"
		/>
	<path d="M63.9822845,49.6909218l1.8291016-0.3544922V36.9946327l-1.8291016-0.3540039v-2.0786133h13.6782227
		v4.7124023h-2.6435547l-0.1533203-2.0551758h-5.605957v4.7363281h6.019043v2.6572266h-6.019043v4.7236328l1.8408203,0.3544922
		v2.0664063h-7.1162109V49.6909218z"/>
	<path d="M91.528183,39.6401405h-1.7583008l-0.4370117-2.4560547
		c-0.3540039-0.2993164-0.8261719-0.5473633-1.4160156-0.7441406c-0.590332-0.1967773-1.2749023-0.2954102-2.0537109-0.2954102
		c-1.2353516,0-2.1831055,0.262207-2.8442383,0.7856445s-0.9912109,1.206543-0.9912109,2.0488281
		c0,0.7480469,0.3359375,1.3720703,1.0087891,1.8720703s1.7602539,0.9389648,3.2631836,1.3168945
		c1.8095703,0.4487305,3.1845703,1.1098633,4.125,1.9838867c0.9399414,0.8740234,1.4101563,1.9570313,1.4101563,3.2480469
		c0,1.3857422-0.5644531,2.5-1.6933594,3.3417969c-1.1289063,0.8427734-2.6064453,1.2636719-4.4316406,1.2636719
		c-1.3217773,0-2.4960938-0.2167969-3.5229492-0.6494141s-1.862793-0.9990234-2.5078125-1.7001953v-3.2011719h1.746582
		l0.4482422,2.46875c0.4487305,0.3701172,0.9833984,0.6728516,1.6054688,0.9091797
		c0.6210938,0.2363281,1.3647461,0.3544922,2.2304688,0.3544922c1.1723633,0,2.0986328-0.2480469,2.7792969-0.7441406
		s1.0209961-1.1689453,1.0209961-2.0195313c0-0.7871094-0.2949219-1.4472656-0.8852539-1.9785156
		c-0.5898438-0.53125-1.6328125-0.9775391-3.1274414-1.3398438c-1.8173828-0.4335938-3.237793-1.0703125-4.2607422-1.9135742
		c-1.0229492-0.8422852-1.5341797-1.9013672-1.5341797-3.1772461c0-1.3457031,0.5703125-2.4658203,1.7114258-3.359375
		c1.140625-0.8935547,2.6240234-1.3408203,4.4492188-1.3408203c1.2041016,0,2.2993164,0.2070313,3.2871094,0.6201172
		c0.9873047,0.4130859,1.7797852,0.9150391,2.3779297,1.5058594V39.6401405z"/>
	<path d="M93.6165619,50.2700233l1.2749023-0.1777344l6.0073242-15.5302734h1.9946289l5.9008789,15.5302734
		l1.2626953,0.1777344v1.4873047h-4.9331055v-1.4873047l1.2983398-0.2246094l-1.1333008-3.1650391h-6.8803711l-1.168457,3.1650391
		l1.2983398,0.2246094v1.4873047h-4.921875V50.2700233z M99.1282806,44.9311562h5.4526367l-2.6674805-7.3808594h-0.0708008
		L99.1282806,44.9311562z"/>
	<path d="M116.8436127,34.5620155v1.5l-1.9238281,0.3305664v9.8256836
		c0,1.2998047,0.3696289,2.2861328,1.109375,2.9589844c0.7392578,0.6728516,1.7148438,1.0097656,2.9267578,1.0097656
		c1.2744141,0,2.3012695-0.3339844,3.0805664-1.0039063c0.7788086-0.6689453,1.168457-1.6572266,1.168457-2.9648438v-9.8256836
		l-1.9238281-0.3305664v-1.5h4.2485352h1.9238281v1.5l-1.9238281,0.3305664v9.8256836
		c0,1.8662109-0.6079102,3.2978516-1.8232422,4.2929688c-1.2158203,0.9970703-2.7993164,1.4941406-4.7504883,1.4941406
		c-1.8959961,0-3.4306641-0.4970703-4.6030273-1.4941406c-1.1723633-0.9951172-1.7583008-2.4267578-1.7583008-4.2929688v-9.8256836
		l-1.9238281-0.3305664v-1.5h1.9238281H116.8436127z"/>
	<path d="M145.8172455,34.5620155v1.5l-1.9238281,0.3305664V51.757328h-2.3242188l-8.2617188-13.2744141
		l-0.0703125,0.0234375v11.4326172l1.9228516,0.3310547v1.4873047h-6.1723633v-1.4873047l1.9233398-0.3310547V36.3925819
		l-1.9233398-0.3305664v-1.5h1.9233398h2.3261719l8.2607422,13.2626953l0.0712891-0.0234375V36.3925819l-1.9238281-0.3305664v-1.5
		h4.2480469H145.8172455z"/>
	<path d="M146.2068939,50.2700233l1.2744141-0.1777344l6.0078125-15.5302734h1.9941406l5.9013672,15.5302734
		l1.2626953,0.1777344v1.4873047h-4.9335938v-1.4873047l1.2988281-0.2246094l-1.1328125-3.1650391h-6.8808594l-1.1679688,3.1650391
		l1.2978516,0.2246094v1.4873047h-4.921875V50.2700233z M151.7186127,44.9311562h5.4521484l-2.6669922-7.3808594h-0.0712891
		L151.7186127,44.9311562z"/>
	<path d="M176.5379486,39.6401405h-1.7578125l-0.4375-2.4560547
		c-0.3535156-0.2993164-0.8261719-0.5473633-1.4160156-0.7441406s-1.2744141-0.2954102-2.0527344-0.2954102
		c-1.2363281,0-2.1835938,0.262207-2.8447266,0.7856445s-0.9912109,1.206543-0.9912109,2.0488281
		c0,0.7480469,0.3359375,1.3720703,1.0087891,1.8720703s1.7607422,0.9389648,3.2626953,1.3168945
		c1.8105469,0.4487305,3.1855469,1.1098633,4.125,1.9838867c0.9404297,0.8740234,1.4101563,1.9570313,1.4101563,3.2480469
		c0,1.3857422-0.5644531,2.5-1.6933594,3.3417969c-1.1289063,0.8427734-2.6054688,1.2636719-4.4316406,1.2636719
		c-1.3212891,0-2.4960938-0.2167969-3.5224609-0.6494141s-1.8623047-0.9990234-2.5078125-1.7001953v-3.2011719h1.7470703
		l0.4472656,2.46875c0.4492188,0.3701172,0.984375,0.6728516,1.6054688,0.9091797s1.3652344,0.3544922,2.2304688,0.3544922
		c1.1728516,0,2.0996094-0.2480469,2.7792969-0.7441406c0.6816406-0.4960938,1.0214844-1.1689453,1.0214844-2.0195313
		c0-0.7871094-0.2949219-1.4472656-0.8847656-1.9785156s-1.6328125-0.9775391-3.1279297-1.3398438
		c-1.8173828-0.4335938-3.2373047-1.0703125-4.2607422-1.9135742c-1.0234375-0.8422852-1.5341797-1.9013672-1.5341797-3.1772461
		c0-1.3457031,0.5703125-2.4658203,1.7119141-3.359375c1.140625-0.8935547,2.6230469-1.3408203,4.4492188-1.3408203
		c1.203125,0,2.2988281,0.2070313,3.2871094,0.6201172c0.9863281,0.4130859,1.7792969,0.9150391,2.3769531,1.5058594V39.6401405z"/>
	<path d="M192.6961517,34.5620155v3.8027344h-1.9833984l-0.1767578-1.972168h-3.8125v13.5463867l1.9238281,0.3310547
		v1.4873047h-6.171875v-1.4873047l1.9238281-0.3310547V36.3925819h-3.8242188l-0.1660156,1.972168h-1.9941406v-3.8027344
		H192.6961517z"/>
	<path d="M201.5115814,34.5737343c1.8720703,0,3.3085938,0.4155273,4.3076172,1.2460938
		c1,0.8310547,1.4990234,2.0097656,1.4990234,3.5371094c0,0.8349609-0.2314453,1.5751953-0.6962891,2.2207031
		s-1.1289063,1.1533203-1.9941406,1.5234375c0.9355469,0.3066406,1.6113281,0.8066406,2.0234375,1.5
		c0.4140625,0.6923828,0.6191406,1.546875,0.6191406,2.5625v1.3818359c0,0.5273438,0.0673828,0.9169922,0.2011719,1.1689453
		s0.3544922,0.4023438,0.6611328,0.4492188l0.5664063,0.0703125v1.5234375h-1.2509766
		c-0.9042969,0-1.5478516-0.3144531-1.9296875-0.9443359s-0.5722656-1.3935547-0.5722656-2.2910156v-1.3349609
		c0-0.9365234-0.2714844-1.6884766-0.8144531-2.2558594c-0.5429688-0.5664063-1.2705078-0.8496094-2.1835938-0.8496094h-3.7285156
		v5.8574219l1.9228516,0.3310547v1.4873047h-6.1728516v-1.4873047l1.9238281-0.3310547V36.3925819l-1.9238281-0.3305664v-1.4882813
		h1.9238281H201.5115814z M198.2195892,42.2504921h3.0566406c1.2978516,0,2.2421875-0.2480469,2.8320313-0.7441406
		s0.8847656-1.2202148,0.8847656-2.1728516c0-0.9052734-0.2832031-1.6220703-0.8496094-2.1494141
		s-1.4433594-0.7915039-2.6318359-0.7915039h-3.2919922V42.2504921z"/>
	<path d="M225.6356049,43.2895546c0,2.5039063-0.71875,4.5830078-2.1542969,6.2363281
		c-1.4365234,1.6533203-3.2949219,2.4794922-5.5761719,2.4794922c-2.21875,0-4.0214844-0.8261719-5.40625-2.4794922
		s-2.0771484-3.7324219-2.0771484-6.2363281v-0.2480469c0-2.4956055,0.6923828-4.5742188,2.0771484-6.2353516
		s3.1875-2.4921875,5.40625-2.4921875c2.28125,0,4.1396484,0.8310547,5.5761719,2.4921875
		c1.4355469,1.6611328,2.1542969,3.7397461,2.1542969,6.2353516V43.2895546z M223.309433,43.0180702
		c0-2-0.4775391-3.6318359-1.4335938-4.8955078s-2.2792969-1.8955078-3.9707031-1.8955078
		c-1.6210938,0-2.8867188,0.6337891-3.7949219,1.9013672c-0.9082031,1.2680664-1.3632813,2.8979492-1.3632813,4.8896484v0.2714844
		c0,2.015625,0.4550781,3.6552734,1.3632813,4.9189453s2.1738281,1.8964844,3.7949219,1.8964844
		c1.7148438,0,3.0449219-0.6308594,3.9882813-1.890625c0.9443359-1.2597656,1.4160156-2.9003906,1.4160156-4.9248047V43.0180702z"/>
	<path d="M232.5867767,36.0620155l-1.8535156,0.2246094l3.5996094,7.015625l3.5996094-7.015625l-1.8408203-0.2246094
		v-1.5h5.9013672v1.5l-1.4511719,0.2246094l-5.0996094,9.4238281v4.2285156l1.9238281,0.3310547v1.4873047h-6.1601563v-1.4873047
		l1.9238281-0.3310547v-4.4052734l-5.0039063-9.2470703l-1.4404297-0.2246094v-1.5h5.9013672V36.0620155z"/>
</g>
</svg>
