<?xml version="1.0" encoding="utf-8"?>
<!-- Generator: Adobe Illustrator 21.1.0, SVG Export Plug-In . SVG Version: 6.00 Build 0)  -->
<svg version="1.1" id="Слой_1" xmlns="http://www.w3.org/2000/svg" xmlns:xlink="http://www.w3.org/1999/xlink" x="0px" y="0px"
	 viewBox="0 0 667.3654785 649.7103271" enable-background="new 0 0 667.3654785 649.7103271" xml:space="preserve">
<path d="M280.7172546,559.6689453C125.3517151,559.6689453,0,434.3171997,0,278.9517212S127.117218,0,280.7172546,0
	s280.7171936,125.3517303,280.7171936,280.7172241S436.0827332,559.6689453,280.7172546,559.6689453z M280.7172546,35.310318
	c-135.9448242,0-245.4068909,109.4620667-245.4068909,245.4069061s109.4620361,245.4069214,245.4068909,245.4069214
	s245.4068909-109.4620972,245.4068909-245.4069214S416.6620789,35.3103485,280.7172546,35.3103485V35.310318z"/>
<path d="M649.7103271,649.7103271c-5.2965088,0-8.8275146-1.7655029-12.3586426-5.2965698L462.5655212,469.6275635
	c-7.0620728-7.0620728-7.0620728-17.6551514,0-24.7172241s17.6551514-7.0620728,24.7172241,0l174.7862244,174.7861938
	c7.0620117,7.0620728,7.0620117,17.6551514,0,24.7172241C658.5379639,647.9447632,655.0068359,649.7103271,649.7103271,649.7103271
	L649.7103271,649.7103271z"/>
<text transform="matrix(1 0 0 1 -243.6413879 860.6827393)" display="none" enable-background="new    " font-family="'Arial-BoldMT'" font-size="5px">Created by Tang Ge</text>
<text transform="matrix(1 0 0 1 -243.6413879 865.6827393)" display="none" enable-background="new    " font-family="'Arial-BoldMT'" font-size="5px">from the Noun Project</text>
</svg>
