<?xml version="1.0" encoding="utf-8"?>
<!-- Generator: Adobe Illustrator 21.1.0, SVG Export Plug-In . SVG Version: 6.00 Build 0)  -->
<svg version="1.1" id="Logo_FIXED" xmlns="http://www.w3.org/2000/svg" xmlns:xlink="http://www.w3.org/1999/xlink" x="0px" y="0px"
	 viewBox="0 0 250 203.1380768" style="enable-background:new 0 0 250 203.1380768;" xml:space="preserve">
<path d="M78.6199951,203.1380768c94.3399963,0,145.9400024-78.159996,145.9400024-145.9400024
	c0-2.2200012,0-4.4299927-0.1499939-6.6300049C234.4483032,43.3071823,243.1135559,34.3168716,250,24.0180874
	c-9.3612061,4.1480179-19.291687,6.8682861-29.4599915,8.0700092c10.707428-6.410181,18.7212219-16.4922867,22.5499878-28.3700047
	c-10.0684204,5.974556-21.0835571,10.1851196-32.5700073,12.449996
	c-19.4249878-20.6551666-51.9163818-21.65242-72.5715485-2.2274237
	c-13.3208771,12.5275106-18.9729462,31.1947784-14.8384552,49.0074158
	C81.8689575,60.8805771,43.4447556,41.4013138,17.4000015,9.3580847
	C3.7862244,32.7945328,10.7398758,62.77668,33.2799988,77.8280869C25.1174088,77.5861588,17.1327972,75.3842239,10,71.4080887
	c0,0.2100067,0,0.4299927,0,0.6499939c0.0066833,24.4159241,17.217514,45.445343,41.1500015,50.2799988
	c-7.5513,2.0594025-15.4741898,2.3604431-23.159996,0.8800049c6.7194748,20.8942184,25.9757385,35.2078323,47.9199982,35.6200027
	c-18.1626434,14.2743225-40.5994034,22.0232849-63.6999969,22C8.1290436,180.830246,4.0520401,180.5831451,0,180.0980682
	c23.4563599,15.0527649,50.7491302,23.0371704,78.6199951,23"/>
</svg>
