<svg xmlns="http://www.w3.org/2000/svg" viewBox="0 0 100 100"><path d="M97.647 25.8c.741-2.2 0-3.8-3.283-3.8H83.455c-2.753 0-4.024 1.4-4.766 2.9 0 0-5.613 12.8-13.45 21.1-2.542 2.4-3.707 3.2-5.084 3.2-.74 0-1.694-.8-1.694-3V25.7c0-2.6-.847-3.8-3.177-3.8H38.127c-1.695 0-2.754 1.2-2.754 2.4 0 2.5 3.919 3.1 4.342 10.1v15.2c0 3.3-.635 3.9-2.012 3.9-3.707 0-12.709-12.9-18.11-27.6-1.06-2.9-2.118-4-4.872-4H3.707C.53 21.9 0 23.3 0 24.8c0 2.7 3.707 16.3 17.263 34.3C26.265 71.4 39.08 78 50.623 78c6.99 0 7.838-1.5 7.838-4v-9.3c0-3 .635-3.5 2.86-3.5 1.588 0 4.448.8 10.908 6.7 7.414 7 8.684 10.2 12.815 10.2h10.908c3.178 0 4.66-1.5 3.813-4.4-.953-2.9-4.554-7.1-9.214-12.1-2.542-2.8-6.354-5.9-7.52-7.4-1.588-2-1.164-2.8 0-4.6-.105 0 13.239-17.8 14.616-23.8"/></svg>