<?xml version="1.0" encoding="utf-8"?>
<!-- Generator: Adobe Illustrator 21.1.0, SVG Export Plug-In . SVG Version: 6.00 Build 0)  -->
<svg version="1.1" id="Layer_1" xmlns="http://www.w3.org/2000/svg" xmlns:xlink="http://www.w3.org/1999/xlink" x="0px" y="0px"
	 viewBox="0 0 94.421936 56.1999893" style="enable-background:new 0 0 94.421936 56.1999893;" xml:space="preserve">
<path d="M92.1999969,3.9000168c0.6999969-2.1999969,0-3.8000031-3.1000061-3.8000031H78.7999878
	c-2.6000061,0-3.8000031,1.4000015-4.5,2.9000015c0,0-5.3000031,12.7999954-12.6999969,21.0999985
	c-2.3999939,2.3999939-3.5,3.1999969-4.8000031,3.1999969c-0.6999969,0-1.6000061-0.8000031-1.6000061-3v-20.5
	c0-2.5999985-0.8000031-3.8000031-3-3.8000031H35.9999847c-1.6000061,0-2.6000061,1.1999969-2.6000061,2.4000015
	c0,2.5,3.6999969,3.0999985,4.1000061,10.0999985v15.1999969c0,3.3000031-0.6000061,3.8999939-1.8999939,3.8999939
	c-3.5,0-12-12.8999939-17.0999985-27.5999985c-1-2.9000015-2-4-4.5999985-4H3.5C0.5,0,0,1.4000015,0,2.9000015
	c0,2.6999969,3.5,16.3000031,16.3000031,34.3000031c8.5,12.3000031,20.6000061,18.8999939,31.5,18.8999939
	c6.6000061,0,7.3999939-1.5,7.3999939-4v-9.3000031c0-3,0.6000061-3.5,2.6999969-3.5
	c1.5,0,4.1999969,0.8000031,10.3000031,6.6999969c7,7,8.1999969,10.1999969,12.1000061,10.1999969h10.3000031
	c3,0,4.3999939-1.5,3.6000061-4.3999939c-0.8999939-2.8999939-4.3000031-7.1000061-8.6999969-12.1000061
	c-2.3999939-2.8000031-6-5.8999939-7.1000061-7.3999939c-1.5-2-1.1000061-2.8000031,0-4.6000061
	C78.3000031,27.7000198,90.9000092,9.9000168,92.1999969,3.9000168"/>
</svg>
